<svg width="15" height="16" viewBox="0 0 15 16" fill="none" xmlns="http://www.w3.org/2000/svg">
<g id="Icon">
<path id="Vector" d="M7.76003 10.728C7.92521 10.728 8.05152 10.6746 8.13896 10.5677L11.9574 6.45776C12.0546 6.36059 12.1007 6.23914 12.0959 6.0934C12.091 5.94765 12.0376 5.8262 11.9356 5.72904C11.8336 5.63188 11.7097 5.5833 11.5639 5.5833C11.4182 5.5833 11.2967 5.63674 11.1996 5.74361L7.76003 9.44549L4.3205 5.74361C4.22333 5.63674 4.10188 5.5833 3.95614 5.5833C3.81039 5.5833 3.68651 5.63188 3.58449 5.72904C3.48247 5.8262 3.42903 5.94765 3.42418 6.0934C3.41932 6.23914 3.46547 6.36059 3.56263 6.45776L7.3811 10.5677C7.48798 10.6746 7.61429 10.728 7.76003 10.728Z" fill="#222222"/>
</g>
</svg>
