<svg width="16" height="16" viewBox="0 0 16 16" fill="none" xmlns="http://www.w3.org/2000/svg">
<g id="65e8d73a6cede72e86862202_for-sale-icon-property-x-webflow-template.svg">
<path id="Vector" d="M10.0973 2.78393L10.0973 2.78393L6.59413 3.24087C6.59412 3.24087 6.59412 3.24087 6.59412 3.24087C6.52288 3.25017 6.45674 3.28274 6.40597 3.33351L6.40597 3.33352L1.57213 8.16735C1.44495 8.29453 1.44495 8.50074 1.57213 8.62792L6.61906 13.6748C6.74624 13.802 6.95243 13.802 7.07961 13.6748L11.9135 8.84097C11.9642 8.79022 11.9968 8.72402 12.0061 8.65287L12.0061 8.65284L12.463 5.14967C12.463 5.14966 12.463 5.14966 12.463 5.14965C12.4761 5.04937 12.4419 4.94873 12.3704 4.87725L12.3704 4.87724M10.0973 2.78393L10.0515 2.4332C10.2607 2.40592 10.4706 2.47733 10.6198 2.62648L12.6205 4.62715L12.3704 4.87724M10.0973 2.78393C10.1975 2.77086 10.2982 2.80505 10.3697 2.87658L10.6198 2.62648L10.3698 2.87663M10.0973 2.78393L10.3698 2.87663M12.3704 4.87724L10.3698 2.87663M12.3704 4.87724L10.3698 2.87663" stroke="black" stroke-width="0.707402"/>
<path id="Vector_2" d="M8.49006 6.34694C8.83102 6.6879 9.38382 6.6879 9.72478 6.34694C10.0657 6.00599 10.0657 5.45319 9.72478 5.11223C9.38382 4.77127 8.83102 4.77127 8.49006 5.11223C8.14911 5.45319 8.14911 6.00599 8.49006 6.34694Z" fill="#14161C"/>
</g>
</svg>
