<svg width="20" height="19" viewBox="0 0 20 19" fill="none" xmlns="http://www.w3.org/2000/svg">
<g id="vuesax/outline/star">
<g id="star">
<path id="Vector" d="M14.3227 17.4059C13.9175 17.4059 13.3978 17.276 12.7481 16.8938L10.4626 15.5409C10.2257 15.4033 9.76703 15.4033 9.53772 15.5409L7.24462 16.8938C5.89169 17.6964 5.09674 17.3754 4.73749 17.1155C4.38588 16.8556 3.83554 16.1906 4.19479 14.6618L4.73749 12.3152C4.79864 12.0706 4.67634 11.6502 4.49289 11.4668L2.59726 9.57115C1.64944 8.62334 1.72588 7.81311 1.85582 7.41564C1.98577 7.01817 2.39852 6.31495 3.71324 6.09328L6.15157 5.68816C6.38088 5.64995 6.70956 5.40535 6.80893 5.19897L8.16186 2.50075C8.77335 1.27012 9.57594 1.08667 9.99634 1.08667C10.4167 1.08667 11.2193 1.27012 11.8308 2.50075L13.1761 5.19133C13.2831 5.3977 13.6118 5.6423 13.8411 5.68052L16.2794 6.08564C17.6018 6.3073 18.0146 7.01052 18.1369 7.40799C18.2592 7.80546 18.3356 8.61569 17.3954 9.56351L15.4998 11.4668C15.3163 11.6502 15.2017 12.063 15.2552 12.3152L15.7979 14.6618C16.1495 16.1906 15.6068 16.8556 15.2552 17.1155C15.0641 17.2531 14.7584 17.4059 14.3227 17.4059ZM9.99634 14.2873C10.3709 14.2873 10.7454 14.379 11.0435 14.5548L13.329 15.9078C13.994 16.3052 14.4144 16.3052 14.5749 16.1906C14.7354 16.0759 14.8501 15.6708 14.6819 14.9217L14.1392 12.5751C13.994 11.9407 14.2309 11.1228 14.6896 10.6566L16.5852 8.76092C16.9597 8.38638 17.1279 8.01949 17.0515 7.76725C16.9674 7.515 16.6158 7.30862 16.096 7.22454L13.6577 6.81943C13.0691 6.72006 12.427 6.24615 12.1595 5.7111L10.8142 3.02052C10.5696 2.53133 10.2639 2.24087 9.99634 2.24087C9.72881 2.24087 9.42306 2.53133 9.18611 3.02052L7.83318 5.7111C7.56565 6.24615 6.92358 6.72006 6.33502 6.81943L3.90433 7.22454C3.38456 7.30862 3.03295 7.515 2.94887 7.76725C2.86479 8.01949 3.04059 8.39403 3.41513 8.76092L5.31077 10.6566C5.76939 11.1152 6.00634 11.9407 5.86111 12.5751L5.31841 14.9217C5.14261 15.6785 5.2649 16.0759 5.42542 16.1906C5.58594 16.3052 5.9987 16.2976 6.67134 15.9078L8.9568 14.5548C9.24726 14.379 9.6218 14.2873 9.99634 14.2873Z" fill="#292D32"/>
</g>
</g>
</svg>
