<svg width="20" height="19" viewBox="0 0 20 19" fill="none" xmlns="http://www.w3.org/2000/svg">
<g id="vuesax/outline/user">
<g id="user">
<path id="Vector" d="M10.0123 9.82368C7.58926 9.82368 5.61719 7.85161 5.61719 5.42856C5.61719 3.00552 7.58926 1.03345 10.0123 1.03345C12.4353 1.03345 14.4074 3.00552 14.4074 5.42856C14.4074 7.85161 12.4353 9.82368 10.0123 9.82368ZM10.0123 2.18C8.22368 2.18 6.76374 3.63994 6.76374 5.42856C6.76374 7.21718 8.22368 8.67713 10.0123 8.67713C11.8009 8.67713 13.2609 7.21718 13.2609 5.42856C13.2609 3.63994 11.8009 2.18 10.0123 2.18Z" fill="#292D32"/>
<path id="Vector_2" d="M16.5782 17.4673C16.2648 17.4673 16.0049 17.2075 16.0049 16.8941C16.0049 14.257 13.3143 12.1168 10.0122 12.1168C6.71017 12.1168 4.0196 14.257 4.0196 16.8941C4.0196 17.2075 3.75971 17.4673 3.44632 17.4673C3.13293 17.4673 2.87305 17.2075 2.87305 16.8941C2.87305 13.6302 6.07574 10.9702 10.0122 10.9702C13.9487 10.9702 17.1514 13.6302 17.1514 16.8941C17.1514 17.2075 16.8915 17.4673 16.5782 17.4673Z" fill="#292D32"/>
</g>
</g>
</svg>
