<svg width="25" height="25" viewBox="0 0 25 25" fill="none" xmlns="http://www.w3.org/2000/svg">
<g id="Icon/Outline/Arctic">
<path id="Vector" d="M13.2128 2.5V5.18667L16.0852 3.64L16.7979 4.79333L13.2128 6.72667V11.3467L17.4893 9.03333V5.16667H18.9148V8.26667L21.4024 6.92L22.1151 8.08L19.6276 9.42L22.5 10.9733L21.7872 12.1267L18.2021 10.1933L13.9255 12.5L18.2021 14.8067L21.7872 12.8733L22.5 14.0267L19.6276 15.58L22.1151 16.92L21.4024 18.08L18.9148 16.7333V19.8333H17.4893V15.9667L13.2128 13.6533V18.2733L16.7979 20.2067L16.0852 21.36L13.2128 19.8133V22.5H11.7872V19.8133L8.91483 21.36L8.20207 20.2067L11.7872 18.2733V13.6533L7.51069 15.9667V19.8333H6.08517V16.7333L3.59765 18.08L2.88489 16.92L5.37242 15.58L2.5 14.0267L3.21276 12.8733L6.79793 14.8067L11.0745 12.5L6.79793 10.1933L3.21276 12.1267L2.5 10.9733L5.37242 9.42L2.88489 8.08L3.59765 6.92L6.08517 8.26667V5.16667H7.51069V9.03333L11.7872 11.3467V6.72667L8.20207 4.79333L8.91483 3.64L11.7872 5.18667V2.5H13.2128Z" fill="#0A0A0A"/>
</g>
</svg>
