<svg width="23" height="23" viewBox="0 0 23 23" fill="none" xmlns="http://www.w3.org/2000/svg">
<g id="6655fc83b7af1a550027e5c9_expand Resize (1) 1">
<path id="Vector" fill-rule="evenodd" clip-rule="evenodd" d="M5.21386 13.8584C5.59355 13.8592 5.90069 14.1678 5.89986 14.5475L5.89453 16.9969C5.89425 17.1238 5.99721 17.2268 6.12415 17.2265L8.57423 17.2216C8.95392 17.2209 9.26234 17.5281 9.26309 17.9078C9.26384 18.2875 8.95666 18.5959 8.57696 18.5966L6.12689 18.6015C5.23832 18.6033 4.5176 17.8825 4.51954 16.9939L4.52486 14.5444C4.52569 14.1647 4.83416 13.8576 5.21386 13.8584Z" fill="black"/>
<path id="Vector_2" fill-rule="evenodd" clip-rule="evenodd" d="M9.35818 13.7602C9.62668 14.0287 9.62668 14.4639 9.35819 14.7324L6.14629 17.9444C5.87781 18.2128 5.44251 18.2129 5.17402 17.9444C4.90554 17.6759 4.90553 17.2406 5.17401 16.9721L8.38591 13.7602C8.65439 13.4917 9.0897 13.4917 9.35818 13.7602Z" fill="black"/>
<path id="Vector_3" fill-rule="evenodd" clip-rule="evenodd" d="M6.1242 5.77442C5.99725 5.77414 5.89426 5.87712 5.89454 6.00408L5.89986 8.45398C5.90069 8.83368 5.59356 9.14215 5.21386 9.14298C4.83416 9.1438 4.52569 8.83667 4.52487 8.45698L4.51954 6.00707C4.5176 5.11839 5.2385 4.39748 6.12719 4.39942L8.5771 4.40475C8.95679 4.40558 9.26392 4.71405 9.26309 5.09375C9.26227 5.47344 8.9538 5.78057 8.5741 5.77974L6.1242 5.77442Z" fill="black"/>
<path id="Vector_4" fill-rule="evenodd" clip-rule="evenodd" d="M18.0277 13.8596C18.4074 13.8588 18.7159 14.166 18.7167 14.5457L18.7221 16.9955C18.724 17.8842 18.0031 18.6051 17.1144 18.6032L14.6645 18.5979C14.2848 18.597 13.9777 18.2886 13.9785 17.9089C13.9793 17.5292 14.2878 17.222 14.6675 17.2229L17.1174 17.2282C17.2443 17.2285 17.3474 17.1255 17.3471 16.9986L17.3417 14.5487C17.3409 14.1689 17.648 13.8604 18.0277 13.8596Z" fill="black"/>
<path id="Vector_5" fill-rule="evenodd" clip-rule="evenodd" d="M17.3457 6.00413C17.346 5.87717 17.243 5.77415 17.1161 5.77442L14.6654 5.77942C14.2858 5.78019 13.9774 5.47302 13.9766 5.09332C13.9758 4.71363 14.283 4.4052 14.6627 4.40442L17.1132 4.39942C18.002 4.3976 18.7228 5.11869 18.7207 6.00742L18.7148 8.4568C18.7139 8.8365 18.4053 9.14356 18.0257 9.14265C17.646 9.14175 17.3389 8.83321 17.3398 8.4535L17.3457 6.00413Z" fill="black"/>
<path id="Vector_6" fill-rule="evenodd" clip-rule="evenodd" d="M18.0653 5.05561C18.3338 5.32409 18.3338 5.7594 18.0653 6.02788L14.8533 9.23985C14.5848 9.50833 14.1495 9.50833 13.8811 9.23985C13.6126 8.97135 13.6126 8.53606 13.8811 8.26757L17.093 5.05561C17.3615 4.78713 17.7968 4.78713 18.0653 5.05561Z" fill="black"/>
</g>
</svg>
