<svg width="25" height="25" viewBox="0 0 25 25" fill="none" xmlns="http://www.w3.org/2000/svg">
<g id="Icon/Outline/Bed">
<path id="Vector" d="M20 4.5C20.3159 4.49913 20.6204 4.61605 20.8523 4.82726C21.0842 5.03847 21.2263 5.3283 21.25 5.63847V10.5554L22.4062 13.9646C22.4367 14.057 22.4597 14.1517 22.475 14.2477L22.4937 14.3954L22.5 14.5431V20.5H21.25V19.2692H3.75V20.5H2.5V14.5431C2.50098 14.3958 2.51986 14.2491 2.55625 14.1062L2.59375 13.9646L3.75 10.5554V5.73077C3.74961 5.43607 3.85663 5.151 4.0516 4.92741C4.24658 4.70381 4.51657 4.55652 4.8125 4.51231L4.90625 4.50616L5 4.5H20ZM21.25 15.5769H3.75V18.0385H21.25V15.5769ZM20.3813 11.8846H4.625L3.7875 14.3462H21.225L20.3813 11.8846ZM20 5.73077H5V10.6538H6.25V8.19231C6.24911 7.88127 6.36786 7.58144 6.58237 7.3531C6.79688 7.12477 7.09124 6.98487 7.40625 6.96154H17.5C17.8159 6.96067 18.1204 7.07759 18.3523 7.2888C18.5842 7.50001 18.7263 7.78984 18.75 8.1V10.6538H20V5.73077ZM11.875 8.19231H7.5V10.6538H11.875V8.19231ZM17.5 8.19231H13.125V10.6538H17.5V8.19231Z" fill="#0A0A0A"/>
</g>
</svg>
