<svg width="20" height="22" viewBox="0 0 20 22" fill="none" xmlns="http://www.w3.org/2000/svg">
<g id="Bell">
<path id="Vector" d="M10 2.5C11.5913 2.5 13.1174 3.13214 14.2426 4.25736C15.3679 5.38258 16 6.9087 16 8.5C16 15.5 19 17.5 19 17.5H1C1 17.5 4 15.5 4 8.5C4 6.9087 4.63214 5.38258 5.75736 4.25736C6.88258 3.13214 8.4087 2.5 10 2.5ZM10 2.5V1.5" stroke="#0A0A0A" stroke-width="1.5" stroke-linecap="round" stroke-linejoin="round"/>
<path id="Vector_2" d="M12.5 18C12.3242 18.3031 12.1453 19.5686 10.9978 20.2295C10.6941 20.4044 10.3499 20.4965 9.99953 20.4965C9.64915 20.4965 9.30492 20.4044 9.0013 20.2295C8.18474 19.7592 7.67581 18.3031 7.5 18" stroke="#0A0A0A" stroke-width="1.5" stroke-linecap="round" stroke-linejoin="round"/>
</g>
</svg>
