<svg width="15" height="15" viewBox="0 0 15 15" fill="none" xmlns="http://www.w3.org/2000/svg">
<path fill-rule="evenodd" clip-rule="evenodd" d="M7.07208 0.291833L5.10735 4.71874L0.416726 5.35187C0.325979 5.36376 0.240425 5.4028 0.170308 5.46433C0.100191 5.52585 0.0484834 5.60726 0.021377 5.69879C-0.00572945 5.79032 -0.00708572 5.88809 0.0174706 5.98041C0.0420269 6.07273 0.0914549 6.15567 0.159836 6.21931L3.63261 9.49462L2.69543 14.4051C2.67778 14.499 2.68629 14.5962 2.71993 14.6852C2.75358 14.7741 2.81094 14.8511 2.88518 14.9068C2.95942 14.9625 3.04739 14.9946 3.13859 14.9994C3.22979 15.0041 3.32036 14.9813 3.3995 14.9335L7.50023 12.4409L11.6057 14.9335C11.6848 14.9813 11.7754 15.0041 11.8666 14.9994C11.9578 14.9946 12.0458 14.9625 12.12 14.9068C12.1943 14.8511 12.2516 14.7741 12.2853 14.6852C12.3189 14.5962 12.3274 14.499 12.3098 14.4051L11.3726 9.49462L14.8454 6.21931C14.9124 6.15507 14.9604 6.07207 14.9839 5.98013C15.0073 5.88818 15.0052 5.79113 14.9776 5.70043C14.9501 5.60974 14.8984 5.52919 14.8286 5.4683C14.7588 5.40742 14.6738 5.36875 14.5837 5.35686L9.89311 4.71874L7.93314 0.291833C7.89529 0.204796 7.83436 0.131004 7.7576 0.0792588C7.68084 0.0275136 7.5915 0 7.50023 0C7.40896 0 7.31962 0.0275136 7.24286 0.0792588C7.1661 0.131004 7.10516 0.204796 7.06732 0.291833H7.07208Z" fill="#146EF5"/>
</svg>
