<svg width="20" height="18" viewBox="0 0 20 18" fill="none" xmlns="http://www.w3.org/2000/svg">
<g id="Briefcase">
<path id="Vector" d="M17.2 5H2.8C1.80589 5 1 5.76751 1 6.71429V15.2857C1 16.2325 1.80589 17 2.8 17H17.2C18.1941 17 19 16.2325 19 15.2857V6.71429C19 5.76751 18.1941 5 17.2 5Z" stroke="#0A0A0A" stroke-width="1.5" stroke-linecap="round" stroke-linejoin="round"/>
<path id="Vector_2" d="M14 17V2.77778C14 2.30628 13.7893 1.8541 13.4142 1.5207C13.0391 1.1873 12.5304 1 12 1H8C7.46957 1 6.96086 1.1873 6.58579 1.5207C6.21071 1.8541 6 2.30628 6 2.77778V17" stroke="#0A0A0A" stroke-width="1.5" stroke-linecap="round" stroke-linejoin="round"/>
</g>
</svg>
