<svg width="25" height="25" viewBox="0 0 25 25" fill="none" xmlns="http://www.w3.org/2000/svg">
<g id="Icon/Outline/Car">
<path id="Vector" d="M20 14C20 14.1989 19.921 14.3897 19.7803 14.5303C19.6397 14.671 19.4489 14.75 19.25 14.75C19.0511 14.75 18.8603 14.671 18.7197 14.5303C18.579 14.3897 18.5 14.1989 18.5 14C18.5 13.8011 18.579 13.6103 18.7197 13.4697C18.8603 13.329 19.0511 13.25 19.25 13.25C19.4489 13.25 19.6397 13.329 19.7803 13.4697C19.921 13.6103 20 13.8011 20 14ZM5.75 13.25C5.55109 13.25 5.36032 13.329 5.21967 13.4697C5.07902 13.6103 5 13.8011 5 14C5 14.1989 5.07902 14.3897 5.21967 14.5303C5.36032 14.671 5.55109 14.75 5.75 14.75C5.94891 14.75 6.13968 14.671 6.28033 14.5303C6.42098 14.3897 6.5 14.1989 6.5 14C6.5 13.8011 6.42098 13.6103 6.28033 13.4697C6.13968 13.329 5.94891 13.25 5.75 13.25ZM21.275 9.5L21.5825 10.34C22.0223 10.6873 22.3782 11.1293 22.6236 11.6331C22.869 12.1369 22.9977 12.6896 23 13.25V20C23 20.3978 22.842 20.7794 22.5607 21.0607C22.2794 21.342 21.8978 21.5 21.5 21.5H20C19.6022 21.5 19.2206 21.342 18.9393 21.0607C18.658 20.7794 18.5 20.3978 18.5 20V18.5H6.5V20C6.5 20.3978 6.34196 20.7794 6.06066 21.0607C5.77936 21.342 5.39782 21.5 5 21.5H3.5C3.10218 21.5 2.72064 21.342 2.43934 21.0607C2.15804 20.7794 2 20.3978 2 20V13.25C2 12.0725 2.5625 11.03 3.4175 10.34L3.725 9.5H2V8H4.25V8.1125L5.615 4.475C5.72182 4.1891 5.91332 3.94259 6.16391 3.76837C6.41451 3.59416 6.71229 3.50053 7.0175 3.5H17.9825C18.605 3.5 19.1675 3.89 19.385 4.475L20.75 8.1125V8H23V9.5H21.275ZM5 18.5H3.5V20H5V18.5ZM21.5 18.5H20V20H21.5V18.5ZM21.5 17V13.25C21.5 12.6533 21.2629 12.081 20.841 11.659C20.419 11.2371 19.8467 11 19.25 11H5.75C5.15326 11 4.58097 11.2371 4.15901 11.659C3.73705 12.081 3.5 12.6533 3.5 13.25V17H21.5ZM19.25 9.5H19.67L17.975 5H7.0175L5.33 9.5H19.25ZM8 14.75H17V13.25H8V14.75Z" fill="#0A0A0A"/>
</g>
</svg>
