<svg width="28" height="29" viewBox="0 0 28 29" fill="none" xmlns="http://www.w3.org/2000/svg">
<g id="cib:apple">
<path id="Vector" d="M25.4375 5.19678H3.5625C3.1481 5.19678 2.75067 5.36359 2.45765 5.66052C2.16462 5.95746 2 6.36018 2 6.78011V22.6134C2 23.0334 2.16462 23.4361 2.45765 23.733C2.75067 24.03 3.1481 24.1968 3.5625 24.1968H25.4375C25.8519 24.1968 26.2493 24.03 26.5424 23.733C26.8354 23.4361 27 23.0334 27 22.6134V6.78011C27 6.36018 26.8354 5.95746 26.5424 5.66052C26.2493 5.36359 25.8519 5.19678 25.4375 5.19678ZM24.2344 22.6134H4.85938L10.3281 16.8818L9.20312 15.7814L3.5625 21.6951V7.98344L13.2734 17.7764C13.5662 18.0713 13.9622 18.2368 14.375 18.2368C14.7878 18.2368 15.1838 18.0713 15.4766 17.7764L25.4375 7.73803V21.5922L19.6875 15.7655L18.5859 16.8818L24.2344 22.6134ZM4.58594 6.78011H24.1719L14.375 16.6522L4.58594 6.78011Z" fill="black"/>
</g>
</svg>
