<svg width="14" height="15" viewBox="0 0 14 15" fill="none" xmlns="http://www.w3.org/2000/svg">
<g id="Star 1">
<path id="Star 1_2" d="M6.61924 1.75539C6.77757 1.33044 7.37864 1.33044 7.53697 1.75539L8.65304 4.75093C8.72179 4.93545 8.89437 5.06084 9.0911 5.0692L12.2849 5.20498C12.738 5.22424 12.9237 5.79589 12.5685 6.07779L10.0645 8.06491C9.91022 8.18731 9.8443 8.3902 9.89714 8.57988L10.755 11.6593C10.8766 12.0962 10.3904 12.4495 10.0125 12.1988L7.34884 10.4313C7.18477 10.3225 6.97144 10.3225 6.80737 10.4313L4.14371 12.1988C3.76584 12.4495 3.27956 12.0962 3.40125 11.6593L4.25907 8.57988C4.31191 8.3902 4.24599 8.18731 4.09174 8.06491L1.5877 6.07779C1.23247 5.79589 1.41821 5.22424 1.87129 5.20498L5.06511 5.0692C5.26184 5.06084 5.43442 4.93545 5.50317 4.75093L6.61924 1.75539Z" fill="#FFD900"/>
</g>
</svg>
