<svg width="28" height="29" viewBox="0 0 28 29" fill="none" xmlns="http://www.w3.org/2000/svg">
<g id="google_ic">
<g id="Group 123">
<path id="Vector" d="M7.46651 17.0804L6.60547 20.2948L3.45837 20.3614C2.51785 18.6169 1.98438 16.621 1.98438 14.5001C1.98438 12.4491 2.48316 10.515 3.3673 8.81201H3.36798L6.16977 9.32568L7.39713 12.1107C7.14025 12.8596 7.00024 13.6635 7.00024 14.5001C7.00033 15.408 7.16479 16.2778 7.46651 17.0804Z" fill="#FBBB00"/>
<path id="Vector_2" d="M26.5052 12.1895C26.6473 12.9376 26.7214 13.7103 26.7214 14.5C26.7214 15.3855 26.6283 16.2492 26.4509 17.0824C25.8488 19.9176 24.2756 22.3933 22.0962 24.1452L22.0955 24.1445L18.5665 23.9645L18.067 20.8466C19.5132 19.9985 20.6433 18.6712 21.2386 17.0824H14.625V12.1895H21.3351H26.5052Z" fill="#518EF8"/>
<path id="Vector_3" d="M22.0956 24.1442L22.0963 24.1449C19.9767 25.8486 17.2842 26.868 14.3532 26.868C9.64311 26.868 5.54801 24.2353 3.45898 20.361L7.46712 17.0801C8.51161 19.8677 11.2007 21.8521 14.3532 21.8521C15.7083 21.8521 16.9778 21.4857 18.0671 20.8463L22.0956 24.1442Z" fill="#28B446"/>
<path id="Vector_4" d="M22.2471 4.97924L18.2404 8.25953C17.113 7.55483 15.7803 7.14774 14.3525 7.14774C11.1286 7.14774 8.38923 9.22315 7.39707 12.1107L3.36786 8.81205H3.36719C5.42563 4.84334 9.57238 2.13184 14.3525 2.13184C17.3535 2.13184 20.1051 3.20082 22.2471 4.97924Z" fill="#F14336"/>
</g>
</g>
</svg>
