<svg width="22" height="21" viewBox="0 0 22 21" fill="none" xmlns="http://www.w3.org/2000/svg">
<g id="vuesax/outline/heart">
<g id="heart">
<path id="Vector" d="M10.861 18.4725C10.5969 18.4725 10.3414 18.4384 10.1285 18.3617C6.87497 17.246 1.70508 13.2855 1.70508 7.43428C1.70508 4.45328 4.11542 2.03442 7.07938 2.03442C8.51877 2.03442 9.86448 2.59655 10.861 3.60157C11.8575 2.59655 13.2032 2.03442 14.6426 2.03442C17.6065 2.03442 20.0169 4.4618 20.0169 7.43428C20.0169 13.2941 14.847 17.246 11.5934 18.3617C11.3805 18.4384 11.125 18.4725 10.861 18.4725ZM7.07938 3.31199C4.82234 3.31199 2.98265 5.16021 2.98265 7.43428C2.98265 13.2515 8.57839 16.488 10.5458 17.1608C10.6992 17.2119 11.0313 17.2119 11.1846 17.1608C13.1436 16.488 18.7478 13.26 18.7478 7.43428C18.7478 5.16021 16.9081 3.31199 14.6511 3.31199C13.3565 3.31199 12.1556 3.91671 11.3805 4.96431C11.142 5.28796 10.5969 5.28796 10.3585 4.96431C9.56638 3.90819 8.37398 3.31199 7.07938 3.31199Z" fill="#292D32"/>
</g>
</g>
</svg>
