<svg width="25" height="25" viewBox="0 0 25 25" fill="none" xmlns="http://www.w3.org/2000/svg">
<g id="Icon/Outline/Money">
<path id="Vector" d="M18.5 4.50001C18.837 4.49906 19.1618 4.62572 19.4091 4.85453C19.6565 5.08334 19.8081 5.39733 19.8333 5.73334V7.16667H21.1933C21.8867 7.16667 22.4467 7.71334 22.5 8.4V19.1667C22.5 19.8667 21.9667 20.4467 21.2933 20.5H6.47334C6.14123 20.4957 5.82295 20.3663 5.58199 20.1377C5.34104 19.9091 5.19512 19.5981 5.17334 19.2667L5.16667 19.1667V17.8333H3.83334C3.49638 17.8343 3.17156 17.7076 2.92419 17.4788C2.67683 17.25 2.52528 16.936 2.50001 16.6V5.83334C2.49906 5.49638 2.62572 5.17156 2.85453 4.92419C3.08334 4.67683 3.39733 4.52528 3.73334 4.50001H3.83334H18.5ZM19.8333 16.5C19.8343 16.837 19.7076 17.1618 19.4788 17.4091C19.25 17.6565 18.936 17.8081 18.6 17.8333H6.5V19.1667H21.1667V8.5H19.8333V16.5ZM18.5 5.83334H3.83334V16.5H18.5V5.83334ZM16.5 13.8333C16.6768 13.8333 16.8464 13.9036 16.9714 14.0286C17.0964 14.1536 17.1667 14.3232 17.1667 14.5C17.1667 14.6768 17.0964 14.8464 16.9714 14.9714C16.8464 15.0964 16.6768 15.1667 16.5 15.1667C16.3232 15.1667 16.1536 15.0964 16.0286 14.9714C15.9036 14.8464 15.8333 14.6768 15.8333 14.5C15.8333 14.3232 15.9036 14.1536 16.0286 14.0286C16.1536 13.9036 16.3232 13.8333 16.5 13.8333ZM11.1667 8.5C11.8739 8.5 12.5522 8.78096 13.0523 9.28105C13.5524 9.78115 13.8333 10.4594 13.8333 11.1667C13.8333 11.8739 13.5524 12.5522 13.0523 13.0523C12.5522 13.5524 11.8739 13.8333 11.1667 13.8333C10.4594 13.8333 9.78115 13.5524 9.28105 13.0523C8.78095 12.5522 8.5 11.8739 8.5 11.1667C8.5 10.4594 8.78095 9.78115 9.28105 9.28105C9.78115 8.78096 10.4594 8.5 11.1667 8.5ZM11.1667 9.83334C10.813 9.83334 10.4739 9.97381 10.2239 10.2239C9.97381 10.4739 9.83334 10.813 9.83334 11.1667C9.83334 11.5203 9.97381 11.8594 10.2239 12.1095C10.4739 12.3595 10.813 12.5 11.1667 12.5C11.5203 12.5 11.8594 12.3595 12.1095 12.1095C12.3595 11.8594 12.5 11.5203 12.5 11.1667C12.5 10.813 12.3595 10.4739 12.1095 10.2239C11.8594 9.97381 11.5203 9.83334 11.1667 9.83334ZM5.83334 7.16667C6.01015 7.16667 6.17972 7.23691 6.30474 7.36193C6.42977 7.48696 6.5 7.65653 6.5 7.83334C6.5 8.01015 6.42977 8.17972 6.30474 8.30474C6.17972 8.42977 6.01015 8.5 5.83334 8.5C5.65653 8.5 5.48696 8.42977 5.36193 8.30474C5.23691 8.17972 5.16667 8.01015 5.16667 7.83334C5.16667 7.65653 5.23691 7.48696 5.36193 7.36193C5.48696 7.23691 5.65653 7.16667 5.83334 7.16667Z" fill="#0A0A0A"/>
</g>
</svg>
