<svg width="19" height="22" viewBox="0 0 19 22" fill="none" xmlns="http://www.w3.org/2000/svg">
<path id="restart_alt" d="M10.7675 21.9756C13.1454 21.6667 15.1132 20.6192 16.6711 18.8332C18.2289 17.047 19.0078 14.9543 19.0078 12.5554C19.0078 11.2665 18.7534 10.0317 18.2446 8.85103C17.7358 7.67013 17.0232 6.6327 16.1066 5.73873L14.7511 7.09426C15.5297 7.80462 16.1168 8.62907 16.5126 9.56762C16.9083 10.5062 17.1062 11.5021 17.1062 12.5554C17.1062 14.4147 16.5126 16.0535 15.3254 17.4716C14.1381 18.8896 12.6188 19.7571 10.7675 20.074V21.9756ZM8.23204 22V20.0984C6.40185 19.7278 4.88786 18.8408 3.69006 17.4374C2.49226 16.034 1.89336 14.4067 1.89336 12.5554C1.89336 10.4425 2.63287 8.6465 4.1119 7.16747C5.59092 5.68845 7.38689 4.94893 9.49978 4.94893H9.94824L8.2368 6.66038L9.57299 7.99626L13.5711 3.99813L9.57299 0L8.2368 1.33588L9.94824 3.04732H9.49978C6.84725 3.04732 4.59945 3.96886 2.75637 5.81194C0.913288 7.65502 -0.00824928 9.90283 -0.00824928 12.5554C-0.00824928 14.9412 0.772676 17.0233 2.33453 18.8015C3.89659 20.5795 5.86243 21.6457 8.23204 22Z" fill="#1C1B1F"/>
</svg>
