<svg width="25" height="25" viewBox="0 0 25 25" fill="none" xmlns="http://www.w3.org/2000/svg">
<g id="Icon/Outline/View">
<path id="Vector" d="M21.0714 2.5C21.4503 2.5 21.8137 2.65051 22.0816 2.91842C22.3495 3.18633 22.5 3.54969 22.5 3.92857V21.0714C22.5 21.4503 22.3495 21.8137 22.0816 22.0816C21.8137 22.3495 21.4503 22.5 21.0714 22.5H3.92857C3.54969 22.5 3.18633 22.3495 2.91842 22.0816C2.65051 21.8137 2.5 21.4503 2.5 21.0714V3.92857C2.5 3.54969 2.65051 3.18633 2.91842 2.91842C3.18633 2.65051 3.54969 2.5 3.92857 2.5H21.0714ZM21.0714 3.92857H3.92857V15H4.06429C4.32857 14.9714 4.57857 14.8786 4.77857 14.7286L4.87857 14.65C5.40321 14.182 6.08266 13.9249 6.78571 13.9286C7.49286 13.9286 8.17857 14.1786 8.69286 14.6429C8.94286 14.8786 9.28571 15 9.64286 15C10 15 10.3429 14.8786 10.5929 14.6429C11.1182 14.1768 11.7978 13.9223 12.5 13.9286C13.2071 13.9286 13.8929 14.1786 14.4071 14.6429C14.6571 14.8786 15 15 15.3571 15C15.7143 15 16.0571 14.8786 16.3071 14.6429C16.8328 14.1774 17.5122 13.923 18.2143 13.9286C18.9214 13.9286 19.6 14.1786 20.1214 14.6429C20.3714 14.8786 20.7143 15 21.0714 15V16.4286H20.9071C20.2617 16.3966 19.6466 16.1445 19.1643 15.7143C18.9027 15.4818 18.5642 15.3546 18.2143 15.3571C17.8571 15.3571 17.5143 15.4786 17.2643 15.7143C16.7386 16.1797 16.0593 16.4342 15.3571 16.4286C14.655 16.4342 13.9757 16.1797 13.45 15.7143C13.1884 15.4818 12.8499 15.3546 12.5 15.3571C12.1429 15.3571 11.8 15.4786 11.55 15.7143C11.0243 16.1797 10.345 16.4342 9.64286 16.4286C8.94075 16.4342 8.26141 16.1797 7.73571 15.7143C7.47414 15.4818 7.13566 15.3546 6.78571 15.3571C6.42857 15.3571 6.08571 15.4786 5.83571 15.7143C5.31002 16.1797 4.63068 16.4342 3.92857 16.4286V18.5714H4.06429C4.32857 18.5429 4.57857 18.45 4.77857 18.3L4.87857 18.2214C5.40321 17.7534 6.08266 17.4964 6.78571 17.5C7.49286 17.5 8.17857 17.75 8.69286 18.2143C8.94286 18.45 9.28571 18.5714 9.64286 18.5714C10 18.5714 10.3429 18.45 10.5929 18.2143C11.1182 17.7483 11.7978 17.4937 12.5 17.5C13.2071 17.5 13.8929 17.75 14.4071 18.2143C14.6571 18.45 15 18.5714 15.3571 18.5714C15.7143 18.5714 16.0571 18.45 16.3071 18.2143C16.8328 17.7488 17.5122 17.4944 18.2143 17.5C18.9214 17.5 19.6 17.75 20.1214 18.2143C20.3714 18.45 20.7143 18.5714 21.0714 18.5714V20H20.9071C20.2617 19.968 19.6466 19.7159 19.1643 19.2857C18.9027 19.0532 18.5642 18.926 18.2143 18.9286C17.8571 18.9286 17.5143 19.05 17.2643 19.2857C16.7386 19.7512 16.0593 20.0056 15.3571 20C14.655 20.0056 13.9757 19.7512 13.45 19.2857C13.1884 19.0532 12.8499 18.926 12.5 18.9286C12.1429 18.9286 11.8 19.05 11.55 19.2857C11.0243 19.7512 10.345 20.0056 9.64286 20C8.94075 20.0056 8.26141 19.7512 7.73571 19.2857C7.47414 19.0532 7.13566 18.926 6.78571 18.9286C6.42857 18.9286 6.08571 19.05 5.83571 19.2857C5.31002 19.7512 4.63068 20.0056 3.92857 20V21.0714H21.0714V3.92857ZM16.7857 6.07143C17.354 6.07143 17.8991 6.29719 18.3009 6.69906C18.7028 7.10092 18.9286 7.64596 18.9286 8.21429C18.9286 8.78261 18.7028 9.32765 18.3009 9.72952C17.8991 10.1314 17.354 10.3571 16.7857 10.3571C16.2174 10.3571 15.6723 10.1314 15.2705 9.72952C14.8686 9.32765 14.6429 8.78261 14.6429 8.21429C14.6429 7.64596 14.8686 7.10092 15.2705 6.69906C15.6723 6.29719 16.2174 6.07143 16.7857 6.07143ZM16.7857 7.5C16.5963 7.5 16.4146 7.57525 16.2806 7.70921C16.1467 7.84316 16.0714 8.02485 16.0714 8.21429C16.0714 8.40373 16.1467 8.58541 16.2806 8.71936C16.4146 8.85332 16.5963 8.92857 16.7857 8.92857C16.9752 8.92857 17.1568 8.85332 17.2908 8.71936C17.4247 8.58541 17.5 8.40373 17.5 8.21429C17.5 8.02485 17.4247 7.84316 17.2908 7.70921C17.1568 7.57525 16.9752 7.5 16.7857 7.5Z" fill="#0A0A0A"/>
</g>
</svg>
