<svg width="19" height="19" viewBox="0 0 19 19" fill="none" xmlns="http://www.w3.org/2000/svg">
<g id="Icon">
<path id="Vector" d="M8.93737 3.86981C8.07398 3.86981 7.27316 4.08566 6.5349 4.51735C5.79665 4.94904 5.21167 5.53089 4.77998 6.26289C4.34829 6.99489 4.13244 7.79571 4.13244 8.66535C4.13244 9.53499 4.34829 10.3389 4.77998 11.0772C5.21167 11.8155 5.79665 12.4004 6.5349 12.8321C7.27316 13.2638 8.07711 13.4797 8.94675 13.4797C9.81639 13.4797 10.6172 13.2638 11.3492 12.8321C12.0812 12.4004 12.6631 11.8155 13.0948 11.0772C13.5264 10.3389 13.7423 9.53499 13.7423 8.66535C13.7423 7.79571 13.5264 6.99489 13.0948 6.26289C12.6631 5.53089 12.0812 4.94904 11.3492 4.51735C10.6172 4.08566 9.81326 3.86981 8.93737 3.86981ZM2.96875 8.67473C2.96875 7.58612 3.23778 6.57884 3.77583 5.65289C4.30137 4.75196 5.0146 4.03873 5.91552 3.51319C6.84147 2.96263 7.84875 2.68735 8.93737 2.68735C10.026 2.68735 11.0333 2.96263 11.9592 3.51319C12.8601 4.03873 13.5734 4.75196 14.0989 5.65289C14.6495 6.57884 14.9248 7.58612 14.9248 8.67473C14.9248 9.37545 14.8059 10.0511 14.5681 10.7018C14.3304 11.3525 13.9925 11.9406 13.5546 12.4661L16.4826 15.3753C16.5952 15.488 16.6515 15.6256 16.6515 15.7883C16.6515 15.9509 16.5921 16.0886 16.4732 16.2012C16.3543 16.3138 16.2167 16.3701 16.0603 16.3701C15.9039 16.3701 15.7631 16.3138 15.638 16.2012L12.7288 13.292C12.2032 13.7174 11.6182 14.049 10.9738 14.2867C10.3294 14.5245 9.6506 14.6433 8.93737 14.6433C7.84875 14.6433 6.84147 14.3743 5.91552 13.8363C5.0146 13.3107 4.30137 12.5975 3.77583 11.6966C3.23778 10.7706 2.96875 9.76335 2.96875 8.67473Z" fill="white"/>
</g>
</svg>
