<svg width="24" height="24" viewBox="0 0 24 24" fill="none" xmlns="http://www.w3.org/2000/svg">
<g id="Icon/Outline/Translate">
<path id="Vector" d="M13.25 2.00003C13.5571 1.99781 13.8543 2.10873 14.0848 2.31161C14.3154 2.51449 14.4631 2.79514 14.5 3.10003V9.50001H20.75C21.0571 9.49779 21.3542 9.6087 21.5848 9.81158C21.8153 10.0145 21.9631 10.2951 22 10.6V20.75C22.0022 21.0571 21.8913 21.3542 21.6884 21.5848C21.4855 21.8153 21.2049 21.9631 20.9 22H10.75C10.4429 22.0022 10.1457 21.8913 9.91519 21.6884C9.68465 21.4855 9.53685 21.2049 9.50001 20.9V14.5H3.25003C2.94293 14.5022 2.64577 14.3913 2.41522 14.1884C2.18467 13.9855 2.03688 13.7049 2.00003 13.4V3.25003C1.99781 2.94293 2.10873 2.64577 2.31161 2.41522C2.51449 2.18467 2.79514 2.03688 3.10003 2.00003H13.25ZM15.4125 10.75L13.6625 11.375L13.9625 11.6375L14.125 11.8C14.275 11.9625 14.4125 12.1125 14.5 12.25L14.6 12.375L14.6625 12.4625L14.7125 12.5625H11.1375V14.1875H12.6375L12.85 14.85L12.975 15.175L13.1 15.55C13.4399 16.3604 13.9131 17.1083 14.5 17.7625C13.875 18.1625 13.1 18.525 12.1625 18.85L11.75 18.9875L11.3125 19.125L10.7625 19.3L11.6625 20.7375L12.1625 20.575L12.6625 20.425C13.9125 19.9875 14.95 19.475 15.7625 18.9C16.475 19.4 17.3625 19.8625 18.4125 20.25L18.875 20.425L19.35 20.575L19.8625 20.7375L20.7625 19.3L20.2 19.125L19.875 19.025L19.45 18.8875C18.6008 18.6077 17.787 18.2302 17.025 17.7625C17.5816 17.1302 18.0332 16.4128 18.3625 15.6375L18.525 15.25L18.6625 14.8375L18.875 14.1875H20.375V12.5625H16.5625L16.4375 12.275C16.2654 11.8603 16.0338 11.4729 15.75 11.125L15.6 10.9375L15.425 10.75H15.4125ZM17.1 14.2L17.05 14.3625L16.95 14.6375L16.825 14.975C16.5634 15.6049 16.2002 16.1876 15.75 16.7C15.3786 16.2736 15.0673 15.7984 14.825 15.2875L14.675 14.975L14.55 14.6375L14.45 14.3625L14.4 14.2H17.1ZM13.25 3.25003H3.25003V13.25H9.50001V10.75L9.51251 10.5375H6.78752L6.28752 12H4.50002L7.32502 4.50002H9.17501L11.05 9.50001H13.25V3.25003ZM8.25001 6.26252L7.31252 9.00001H9.18751L8.25001 6.26252Z" fill="#0A0A0A"/>
</g>
</svg>
