<svg width="25" height="25" viewBox="0 0 25 25" fill="none" xmlns="http://www.w3.org/2000/svg">
<g id="Icon/Outline/User">
<path id="Vector" d="M12.5 2.5C13.8132 2.5 15.1136 2.75866 16.3268 3.2612C17.5401 3.76375 18.6425 4.50035 19.5711 5.42893C20.4997 6.35752 21.2362 7.45991 21.7388 8.67317C22.2413 9.88642 22.5 11.1868 22.5 12.5C22.5 13.8132 22.2413 15.1136 21.7388 16.3268C21.2362 17.5401 20.4997 18.6425 19.5711 19.5711C18.6425 20.4997 17.5401 21.2362 16.3268 21.7388C15.1136 22.2413 13.8132 22.5 12.5 22.5C9.84784 22.5 7.3043 21.4464 5.42893 19.5711C3.55357 17.6957 2.5 15.1522 2.5 12.5C2.5 9.84784 3.55357 7.3043 5.42893 5.42893C7.3043 3.55357 9.84784 2.5 12.5 2.5ZM12.5 7.83333C11.7349 7.83423 10.9934 8.09831 10.4 8.58122C9.80654 9.06414 9.39729 9.73651 9.24094 10.4855C9.08458 11.2344 9.19063 12.0143 9.54128 12.6944C9.89193 13.3744 10.4658 13.9131 11.1667 14.22V15.62L11.0667 15.64C9.18328 16.0149 7.52208 17.1136 6.44 18.7C8.00667 20.2267 10.14 21.1667 12.5 21.1667C14.86 21.1667 16.9933 20.2267 18.56 18.7C17.4795 17.115 15.8209 16.0165 13.94 15.64L13.8333 15.62V14.22C14.4043 13.9716 14.8942 13.5683 15.2477 13.0558C15.6012 12.5432 15.8041 11.9419 15.8333 11.32V11.1667C15.8333 10.2826 15.4821 9.43477 14.857 8.80964C14.2319 8.18452 13.3841 7.83333 12.5 7.83333ZM12.5 3.83333C10.8939 3.833 9.31926 4.27899 7.95186 5.12153C6.58447 5.96406 5.4781 7.17 4.75623 8.60476C4.03436 10.0395 3.72538 11.6466 3.86378 13.2468C4.00217 14.8469 4.5825 16.3772 5.54 17.6667C6.48575 16.3913 7.76321 15.3998 9.23333 14.8L9.46667 14.7133L9.45333 14.7C8.96757 14.2822 8.57304 13.7689 8.29433 13.1919C8.01562 12.615 7.8587 11.9869 7.83333 11.3467V11.1667C7.83401 10.3927 8.02716 9.63114 8.39538 8.95042C8.7636 8.26971 9.29534 7.69126 9.94272 7.26716C10.5901 6.84306 11.3328 6.58662 12.1039 6.52093C12.875 6.45525 13.6504 6.58237 14.3602 6.89087C15.07 7.19936 15.6919 7.67954 16.1699 8.28817C16.648 8.89679 16.9672 9.61476 17.0987 10.3774C17.2303 11.1401 17.1701 11.9235 16.9236 12.6571C16.6771 13.3907 16.2521 14.0515 15.6867 14.58L15.5333 14.7133L15.56 14.7267C17.1133 15.3133 18.4667 16.3333 19.46 17.66C20.4156 16.3705 20.9943 14.8409 21.1317 13.2418C21.2691 11.6427 20.9597 10.0369 20.2381 8.60326C19.5164 7.16965 18.4109 5.96459 17.0446 5.12238C15.6783 4.28018 14.105 3.83392 12.5 3.83333Z" fill="#0A0A0A"/>
</g>
</svg>
