<svg width="15" height="15" viewBox="0 0 15 15" fill="none" xmlns="http://www.w3.org/2000/svg">
<g id="Star 2">
<path id="Star 1" d="M7.33018 1.75539C7.48851 1.33044 8.08958 1.33044 8.2479 1.75539L9.36398 4.75093C9.43272 4.93545 9.60531 5.06084 9.80204 5.0692L12.9959 5.20498C13.4489 5.22424 13.6347 5.79589 13.2794 6.07779L10.7754 8.06491C10.6212 8.18731 10.5552 8.3902 10.6081 8.57988L11.4659 11.6593C11.5876 12.0962 11.1013 12.4495 10.7234 12.1988L8.05978 10.4313C7.8957 10.3225 7.68238 10.3225 7.5183 10.4313L4.85464 12.1988C4.47678 12.4495 3.9905 12.0962 4.11219 11.6593L4.97001 8.57988C5.02285 8.3902 4.95692 8.18731 4.80268 8.06491L2.29863 6.07779C1.94341 5.79589 2.12915 5.22424 2.58223 5.20498L5.77604 5.0692C5.97277 5.06084 6.14536 4.93545 6.21411 4.75093L7.33018 1.75539Z" fill="#FFFFFF"/>
</g>
</svg>
