<svg width="25" height="25" viewBox="0 0 25 25" fill="none" xmlns="http://www.w3.org/2000/svg">
<g id="Icon/Outline/Wifi">
<path id="Vector" d="M12.5 15.4683C13.1176 15.4683 13.7099 15.7334 14.1466 16.2052C14.5833 16.677 14.8287 17.3169 14.8287 17.9841C14.8287 18.6514 14.5833 19.2913 14.1466 19.7631C13.7099 20.2349 13.1176 20.5 12.5 20.5C11.8824 20.5 11.2901 20.2349 10.8534 19.7631C10.4167 19.2913 10.1713 18.6514 10.1713 17.9841C10.1713 17.3169 10.4167 16.677 10.8534 16.2052C11.2901 15.7334 11.8824 15.4683 12.5 15.4683ZM12.5 16.8393C12.219 16.8393 11.9494 16.9599 11.7507 17.1746C11.552 17.3893 11.4404 17.6805 11.4404 17.9841C11.4404 18.2878 11.552 18.579 11.7507 18.7937C11.9494 19.0083 12.219 19.129 12.5 19.129C12.781 19.129 13.0506 19.0083 13.2493 18.7937C13.448 18.579 13.5596 18.2878 13.5596 17.9841C13.5596 17.6805 13.448 17.3893 13.2493 17.1746C13.0506 16.9599 12.781 16.8393 12.5 16.8393ZM12.5 11.8145C13.5585 11.8148 14.596 12.1329 15.4969 12.7333C16.3977 13.3337 17.1264 14.1928 17.6015 15.2147L16.6434 16.2498C16.3203 15.346 15.7516 14.569 15.0121 14.0211C14.2725 13.4731 13.3968 13.1798 12.5 13.1798C11.6032 13.1798 10.7275 13.4731 9.98792 14.0211C9.24837 14.569 8.67965 15.346 8.3566 16.2498L7.39848 15.2147C7.87361 14.1928 8.60227 13.3337 9.50312 12.7333C10.404 12.1329 11.4415 11.8148 12.5 11.8145ZM12.5 8.16067C15.6599 8.16067 18.4454 9.90189 20.0761 12.548L19.1561 13.5351C18.4551 12.3091 17.4756 11.297 16.3106 10.5951C15.1456 9.89322 13.8339 9.52477 12.5 9.52477C11.1661 9.52477 9.85438 9.89322 8.6894 10.5951C7.52443 11.297 6.54492 12.3091 5.84391 13.5351L4.92386 12.5411C5.7534 11.1911 6.87939 10.0839 8.20135 9.31836C9.5233 8.55281 11.0001 8.15273 12.5 8.15381V8.16067ZM12.5 4.5C16.5926 4.5 20.2284 6.62511 22.5 9.9156L21.5926 10.9027C20.5563 9.34302 19.191 8.07232 17.6099 7.19579C16.0288 6.31925 14.2772 5.86207 12.5 5.86207C10.7228 5.86207 8.97124 6.31925 7.3901 7.19579C5.80895 8.07232 4.44372 9.34302 3.40736 10.9027L2.5 9.92245C4.77157 6.63196 8.40101 4.50686 12.5 4.50686V4.5Z" fill="#0A0A0A"/>
</g>
</svg>
